<mxfile host="app.diagrams.net" modified="2022-01-24T00:08:35.765Z" agent="5.0 (Windows NT 10.0; Win64; x64) AppleWebKit/537.36 (KHTML, like Gecko) Chrome/97.0.4692.99 Safari/537.36" etag="bXglmYis2Vmmo6SEEhs2" version="16.4.5" type="github">
  <diagram id="fXnKVJo2dWj3Zg0uGxu4" name="Page-1">
    <mxGraphModel dx="2979" dy="1354" grid="1" gridSize="10" guides="1" tooltips="1" connect="1" arrows="1" fold="1" page="1" pageScale="1" pageWidth="827" pageHeight="1169" math="0" shadow="0">
      <root>
        <mxCell id="0" />
        <mxCell id="1" parent="0" />
        <mxCell id="bbqiQBsZa8V4FSiDIm1c-1" value="Bank Internetowy" style="text;html=1;strokeColor=none;fillColor=none;align=center;verticalAlign=middle;whiteSpace=wrap;rounded=0;fontSize=19;" vertex="1" parent="1">
          <mxGeometry x="329" width="170" height="60" as="geometry" />
        </mxCell>
        <mxCell id="bbqiQBsZa8V4FSiDIm1c-2" value="Dominik Grudzień&lt;br&gt;Grzywacz Patryk" style="text;html=1;strokeColor=none;fillColor=none;align=center;verticalAlign=middle;whiteSpace=wrap;rounded=0;fontSize=19;" vertex="1" parent="1">
          <mxGeometry x="50" width="170" height="60" as="geometry" />
        </mxCell>
        <mxCell id="bbqiQBsZa8V4FSiDIm1c-3" value="Wzorce Czynnościowe" style="text;html=1;strokeColor=none;fillColor=none;align=center;verticalAlign=middle;whiteSpace=wrap;rounded=0;fontSize=19;" vertex="1" parent="1">
          <mxGeometry x="650" width="170" height="60" as="geometry" />
        </mxCell>
        <mxCell id="bbqiQBsZa8V4FSiDIm1c-4" value="&lt;h1&gt;Iterator&lt;/h1&gt;&lt;p&gt;.&lt;/p&gt;" style="text;html=1;strokeColor=none;fillColor=none;spacing=5;spacingTop=-20;whiteSpace=wrap;overflow=hidden;rounded=0;fontSize=19;" vertex="1" parent="1">
          <mxGeometry x="10" y="80" width="190" height="230" as="geometry" />
        </mxCell>
        <mxCell id="bbqiQBsZa8V4FSiDIm1c-5" value="&lt;interface&gt; Iterator&lt;E&gt;" style="swimlane;fontStyle=0;align=center;verticalAlign=middle;childLayout=stackLayout;horizontal=1;startSize=26;horizontalStack=0;resizeParent=1;resizeParentMax=0;resizeLast=0;collapsible=1;marginBottom=0;fontSize=19;" vertex="1" parent="1">
          <mxGeometry x="280" y="100" width="240" height="112" as="geometry" />
        </mxCell>
        <mxCell id="bbqiQBsZa8V4FSiDIm1c-7" value="" style="line;strokeWidth=1;fillColor=none;align=left;verticalAlign=middle;spacingTop=-1;spacingLeft=3;spacingRight=3;rotatable=0;labelPosition=right;points=[];portConstraint=eastwest;fontSize=19;" vertex="1" parent="bbqiQBsZa8V4FSiDIm1c-5">
          <mxGeometry y="26" width="240" height="8" as="geometry" />
        </mxCell>
        <mxCell id="bbqiQBsZa8V4FSiDIm1c-9" value="+ hasNext();boolean" style="text;strokeColor=none;fillColor=none;align=left;verticalAlign=bottom;spacingLeft=4;spacingRight=4;overflow=hidden;rotatable=0;points=[[0,0.5],[1,0.5]];portConstraint=eastwest;fontSize=19;" vertex="1" parent="bbqiQBsZa8V4FSiDIm1c-5">
          <mxGeometry y="34" width="240" height="26" as="geometry" />
        </mxCell>
        <mxCell id="bbqiQBsZa8V4FSiDIm1c-10" value="+ next(); E" style="text;strokeColor=none;fillColor=none;align=left;verticalAlign=bottom;spacingLeft=4;spacingRight=4;overflow=hidden;rotatable=0;points=[[0,0.5],[1,0.5]];portConstraint=eastwest;fontSize=19;" vertex="1" parent="bbqiQBsZa8V4FSiDIm1c-5">
          <mxGeometry y="60" width="240" height="26" as="geometry" />
        </mxCell>
        <mxCell id="bbqiQBsZa8V4FSiDIm1c-8" value="+ remove();void" style="text;strokeColor=none;fillColor=none;align=left;verticalAlign=bottom;spacingLeft=4;spacingRight=4;overflow=hidden;rotatable=0;points=[[0,0.5],[1,0.5]];portConstraint=eastwest;fontSize=19;" vertex="1" parent="bbqiQBsZa8V4FSiDIm1c-5">
          <mxGeometry y="86" width="240" height="26" as="geometry" />
        </mxCell>
        <mxCell id="bbqiQBsZa8V4FSiDIm1c-16" style="edgeStyle=orthogonalEdgeStyle;rounded=0;orthogonalLoop=1;jettySize=auto;html=1;fontSize=19;strokeWidth=2;dashed=1;endArrow=block;endFill=0;endSize=14;" edge="1" parent="1" source="bbqiQBsZa8V4FSiDIm1c-11" target="bbqiQBsZa8V4FSiDIm1c-5">
          <mxGeometry relative="1" as="geometry" />
        </mxCell>
        <mxCell id="bbqiQBsZa8V4FSiDIm1c-11" value="class CyclicalTransferIterator" style="swimlane;fontStyle=0;align=center;verticalAlign=middle;childLayout=stackLayout;horizontal=1;startSize=26;horizontalStack=0;resizeParent=1;resizeParentMax=0;resizeLast=0;collapsible=1;marginBottom=0;fontSize=19;" vertex="1" parent="1">
          <mxGeometry x="70" y="280" width="660" height="242" as="geometry" />
        </mxCell>
        <mxCell id="bbqiQBsZa8V4FSiDIm1c-18" value="- const List&lt;CyclicalTransfer&gt; cyclicalTransfers;" style="text;strokeColor=none;fillColor=none;align=left;verticalAlign=bottom;spacingLeft=4;spacingRight=4;overflow=hidden;rotatable=0;points=[[0,0.5],[1,0.5]];portConstraint=eastwest;fontSize=19;" vertex="1" parent="bbqiQBsZa8V4FSiDIm1c-11">
          <mxGeometry y="26" width="660" height="26" as="geometry" />
        </mxCell>
        <mxCell id="bbqiQBsZa8V4FSiDIm1c-17" value="- CyclicalTransfer cyclicalTransfer;" style="text;strokeColor=none;fillColor=none;align=left;verticalAlign=bottom;spacingLeft=4;spacingRight=4;overflow=hidden;rotatable=0;points=[[0,0.5],[1,0.5]];portConstraint=eastwest;fontSize=19;" vertex="1" parent="bbqiQBsZa8V4FSiDIm1c-11">
          <mxGeometry y="52" width="660" height="26" as="geometry" />
        </mxCell>
        <mxCell id="bbqiQBsZa8V4FSiDIm1c-19" value="- boolean foundTransfer;" style="text;strokeColor=none;fillColor=none;align=left;verticalAlign=bottom;spacingLeft=4;spacingRight=4;overflow=hidden;rotatable=0;points=[[0,0.5],[1,0.5]];portConstraint=eastwest;fontSize=19;" vertex="1" parent="bbqiQBsZa8V4FSiDIm1c-11">
          <mxGeometry y="78" width="660" height="26" as="geometry" />
        </mxCell>
        <mxCell id="bbqiQBsZa8V4FSiDIm1c-20" value="- int index;" style="text;strokeColor=none;fillColor=none;align=left;verticalAlign=bottom;spacingLeft=4;spacingRight=4;overflow=hidden;rotatable=0;points=[[0,0.5],[1,0.5]];portConstraint=eastwest;fontSize=19;" vertex="1" parent="bbqiQBsZa8V4FSiDIm1c-11">
          <mxGeometry y="104" width="660" height="26" as="geometry" />
        </mxCell>
        <mxCell id="bbqiQBsZa8V4FSiDIm1c-12" value="" style="line;strokeWidth=1;fillColor=none;align=left;verticalAlign=middle;spacingTop=-1;spacingLeft=3;spacingRight=3;rotatable=0;labelPosition=right;points=[];portConstraint=eastwest;fontSize=19;" vertex="1" parent="bbqiQBsZa8V4FSiDIm1c-11">
          <mxGeometry y="130" width="660" height="8" as="geometry" />
        </mxCell>
        <mxCell id="bbqiQBsZa8V4FSiDIm1c-13" value="+ CyclicalTransferIterator(List&lt;CyclicalTransfer&gt; cyclicalTransfers);" style="text;strokeColor=none;fillColor=none;align=left;verticalAlign=bottom;spacingLeft=4;spacingRight=4;overflow=hidden;rotatable=0;points=[[0,0.5],[1,0.5]];portConstraint=eastwest;fontSize=19;" vertex="1" parent="bbqiQBsZa8V4FSiDIm1c-11">
          <mxGeometry y="138" width="660" height="26" as="geometry" />
        </mxCell>
        <mxCell id="bbqiQBsZa8V4FSiDIm1c-21" value="@Override + hasNext();boolean" style="text;strokeColor=none;fillColor=none;align=left;verticalAlign=bottom;spacingLeft=4;spacingRight=4;overflow=hidden;rotatable=0;points=[[0,0.5],[1,0.5]];portConstraint=eastwest;fontSize=19;" vertex="1" parent="bbqiQBsZa8V4FSiDIm1c-11">
          <mxGeometry y="164" width="660" height="26" as="geometry" />
        </mxCell>
        <mxCell id="bbqiQBsZa8V4FSiDIm1c-14" value="+ equals(CyclicalTransfer newCyclicalTransfer); boolean" style="text;strokeColor=none;fillColor=none;align=left;verticalAlign=bottom;spacingLeft=4;spacingRight=4;overflow=hidden;rotatable=0;points=[[0,0.5],[1,0.5]];portConstraint=eastwest;fontSize=19;" vertex="1" parent="bbqiQBsZa8V4FSiDIm1c-11">
          <mxGeometry y="190" width="660" height="26" as="geometry" />
        </mxCell>
        <mxCell id="bbqiQBsZa8V4FSiDIm1c-15" value="@Override + next(); CyclicalTransfer" style="text;strokeColor=none;fillColor=none;align=left;verticalAlign=bottom;spacingLeft=4;spacingRight=4;overflow=hidden;rotatable=0;points=[[0,0.5],[1,0.5]];portConstraint=eastwest;fontSize=19;" vertex="1" parent="bbqiQBsZa8V4FSiDIm1c-11">
          <mxGeometry y="216" width="660" height="26" as="geometry" />
        </mxCell>
        <mxCell id="bbqiQBsZa8V4FSiDIm1c-22" value="&lt;h1&gt;State&lt;/h1&gt;&lt;p&gt;.&lt;/p&gt;" style="text;html=1;strokeColor=none;fillColor=none;spacing=5;spacingTop=-20;whiteSpace=wrap;overflow=hidden;rounded=0;fontSize=19;" vertex="1" parent="1">
          <mxGeometry x="10" y="540" width="190" height="230" as="geometry" />
        </mxCell>
        <mxCell id="bbqiQBsZa8V4FSiDIm1c-43" style="edgeStyle=orthogonalEdgeStyle;rounded=0;orthogonalLoop=1;jettySize=auto;html=1;fontSize=19;endArrow=classicThin;endFill=1;endSize=14;strokeWidth=2;" edge="1" parent="1" source="bbqiQBsZa8V4FSiDIm1c-23" target="bbqiQBsZa8V4FSiDIm1c-31">
          <mxGeometry relative="1" as="geometry" />
        </mxCell>
        <mxCell id="bbqiQBsZa8V4FSiDIm1c-23" value="&lt;interface&gt; OrderState" style="swimlane;fontStyle=0;align=center;verticalAlign=middle;childLayout=stackLayout;horizontal=1;startSize=26;horizontalStack=0;resizeParent=1;resizeParentMax=0;resizeLast=0;collapsible=1;marginBottom=0;fontSize=19;" vertex="1" parent="1">
          <mxGeometry x="233.75" y="701" width="530" height="60" as="geometry" />
        </mxCell>
        <mxCell id="bbqiQBsZa8V4FSiDIm1c-24" value="" style="line;strokeWidth=1;fillColor=none;align=left;verticalAlign=middle;spacingTop=-1;spacingLeft=3;spacingRight=3;rotatable=0;labelPosition=right;points=[];portConstraint=eastwest;fontSize=19;" vertex="1" parent="bbqiQBsZa8V4FSiDIm1c-23">
          <mxGeometry y="26" width="530" height="8" as="geometry" />
        </mxCell>
        <mxCell id="bbqiQBsZa8V4FSiDIm1c-25" value="+ action(String decision, OrderContext orderContext);void" style="text;strokeColor=none;fillColor=none;align=left;verticalAlign=bottom;spacingLeft=4;spacingRight=4;overflow=hidden;rotatable=0;points=[[0,0.5],[1,0.5]];portConstraint=eastwest;fontSize=19;" vertex="1" parent="bbqiQBsZa8V4FSiDIm1c-23">
          <mxGeometry y="34" width="530" height="26" as="geometry" />
        </mxCell>
        <mxCell id="bbqiQBsZa8V4FSiDIm1c-44" style="edgeStyle=orthogonalEdgeStyle;rounded=0;orthogonalLoop=1;jettySize=auto;html=1;fontSize=19;endArrow=block;endFill=0;endSize=14;strokeWidth=2;dashed=1;exitX=0.5;exitY=0;exitDx=0;exitDy=0;" edge="1" parent="1" source="bbqiQBsZa8V4FSiDIm1c-28" target="bbqiQBsZa8V4FSiDIm1c-23">
          <mxGeometry relative="1" as="geometry">
            <mxPoint x="-16.25" y="910" as="sourcePoint" />
          </mxGeometry>
        </mxCell>
        <mxCell id="bbqiQBsZa8V4FSiDIm1c-28" value="class InProgressOrder" style="swimlane;fontStyle=0;align=center;verticalAlign=middle;childLayout=stackLayout;horizontal=1;startSize=26;horizontalStack=0;resizeParent=1;resizeParentMax=0;resizeLast=0;collapsible=1;marginBottom=0;fontSize=19;" vertex="1" parent="1">
          <mxGeometry x="-446.75" y="949" width="630" height="60" as="geometry" />
        </mxCell>
        <mxCell id="bbqiQBsZa8V4FSiDIm1c-29" value="" style="line;strokeWidth=1;fillColor=none;align=left;verticalAlign=middle;spacingTop=-1;spacingLeft=3;spacingRight=3;rotatable=0;labelPosition=right;points=[];portConstraint=eastwest;fontSize=19;" vertex="1" parent="bbqiQBsZa8V4FSiDIm1c-28">
          <mxGeometry y="26" width="630" height="8" as="geometry" />
        </mxCell>
        <mxCell id="bbqiQBsZa8V4FSiDIm1c-30" value="@Override + action(String decision, OrderContext orderContext);void" style="text;strokeColor=none;fillColor=none;align=left;verticalAlign=bottom;spacingLeft=4;spacingRight=4;overflow=hidden;rotatable=0;points=[[0,0.5],[1,0.5]];portConstraint=eastwest;fontSize=19;" vertex="1" parent="bbqiQBsZa8V4FSiDIm1c-28">
          <mxGeometry y="34" width="630" height="26" as="geometry" />
        </mxCell>
        <mxCell id="bbqiQBsZa8V4FSiDIm1c-31" value="class OrderContext" style="swimlane;fontStyle=0;align=center;verticalAlign=middle;childLayout=stackLayout;horizontal=1;startSize=26;horizontalStack=0;resizeParent=1;resizeParentMax=0;resizeLast=0;collapsible=1;marginBottom=0;fontSize=19;" vertex="1" parent="1">
          <mxGeometry x="-260" y="610" width="446.25" height="242" as="geometry" />
        </mxCell>
        <mxCell id="bbqiQBsZa8V4FSiDIm1c-32" value="+ String decision;" style="text;strokeColor=none;fillColor=none;align=left;verticalAlign=bottom;spacingLeft=4;spacingRight=4;overflow=hidden;rotatable=0;points=[[0,0.5],[1,0.5]];portConstraint=eastwest;fontSize=19;" vertex="1" parent="bbqiQBsZa8V4FSiDIm1c-31">
          <mxGeometry y="26" width="446.25" height="26" as="geometry" />
        </mxCell>
        <mxCell id="bbqiQBsZa8V4FSiDIm1c-33" value="+ boolean isActive;" style="text;strokeColor=none;fillColor=none;align=left;verticalAlign=bottom;spacingLeft=4;spacingRight=4;overflow=hidden;rotatable=0;points=[[0,0.5],[1,0.5]];portConstraint=eastwest;fontSize=19;" vertex="1" parent="bbqiQBsZa8V4FSiDIm1c-31">
          <mxGeometry y="52" width="446.25" height="26" as="geometry" />
        </mxCell>
        <mxCell id="bbqiQBsZa8V4FSiDIm1c-34" value="+ SystemFacade systemService;" style="text;strokeColor=none;fillColor=none;align=left;verticalAlign=bottom;spacingLeft=4;spacingRight=4;overflow=hidden;rotatable=0;points=[[0,0.5],[1,0.5]];portConstraint=eastwest;fontSize=19;" vertex="1" parent="bbqiQBsZa8V4FSiDIm1c-31">
          <mxGeometry y="78" width="446.25" height="26" as="geometry" />
        </mxCell>
        <mxCell id="bbqiQBsZa8V4FSiDIm1c-35" value="+ Jsonb jsonb;" style="text;strokeColor=none;fillColor=none;align=left;verticalAlign=bottom;spacingLeft=4;spacingRight=4;overflow=hidden;rotatable=0;points=[[0,0.5],[1,0.5]];portConstraint=eastwest;fontSize=19;" vertex="1" parent="bbqiQBsZa8V4FSiDIm1c-31">
          <mxGeometry y="104" width="446.25" height="26" as="geometry" />
        </mxCell>
        <mxCell id="bbqiQBsZa8V4FSiDIm1c-41" value="+ String orderType;" style="text;strokeColor=none;fillColor=none;align=left;verticalAlign=bottom;spacingLeft=4;spacingRight=4;overflow=hidden;rotatable=0;points=[[0,0.5],[1,0.5]];portConstraint=eastwest;fontSize=19;" vertex="1" parent="bbqiQBsZa8V4FSiDIm1c-31">
          <mxGeometry y="130" width="446.25" height="26" as="geometry" />
        </mxCell>
        <mxCell id="bbqiQBsZa8V4FSiDIm1c-42" value="- OrderState state;" style="text;strokeColor=none;fillColor=none;align=left;verticalAlign=bottom;spacingLeft=4;spacingRight=4;overflow=hidden;rotatable=0;points=[[0,0.5],[1,0.5]];portConstraint=eastwest;fontSize=19;" vertex="1" parent="bbqiQBsZa8V4FSiDIm1c-31">
          <mxGeometry y="156" width="446.25" height="26" as="geometry" />
        </mxCell>
        <mxCell id="bbqiQBsZa8V4FSiDIm1c-36" value="" style="line;strokeWidth=1;fillColor=none;align=left;verticalAlign=middle;spacingTop=-1;spacingLeft=3;spacingRight=3;rotatable=0;labelPosition=right;points=[];portConstraint=eastwest;fontSize=19;" vertex="1" parent="bbqiQBsZa8V4FSiDIm1c-31">
          <mxGeometry y="182" width="446.25" height="8" as="geometry" />
        </mxCell>
        <mxCell id="bbqiQBsZa8V4FSiDIm1c-37" value="+ OrderContext(String decision);" style="text;strokeColor=none;fillColor=none;align=left;verticalAlign=bottom;spacingLeft=4;spacingRight=4;overflow=hidden;rotatable=0;points=[[0,0.5],[1,0.5]];portConstraint=eastwest;fontSize=19;" vertex="1" parent="bbqiQBsZa8V4FSiDIm1c-31">
          <mxGeometry y="190" width="446.25" height="26" as="geometry" />
        </mxCell>
        <mxCell id="bbqiQBsZa8V4FSiDIm1c-39" value="+ setDecision(String decision); void" style="text;strokeColor=none;fillColor=none;align=left;verticalAlign=bottom;spacingLeft=4;spacingRight=4;overflow=hidden;rotatable=0;points=[[0,0.5],[1,0.5]];portConstraint=eastwest;fontSize=19;" vertex="1" parent="bbqiQBsZa8V4FSiDIm1c-31">
          <mxGeometry y="216" width="446.25" height="26" as="geometry" />
        </mxCell>
        <mxCell id="bbqiQBsZa8V4FSiDIm1c-48" style="edgeStyle=orthogonalEdgeStyle;rounded=0;orthogonalLoop=1;jettySize=auto;html=1;dashed=1;fontSize=19;endArrow=block;endFill=0;endSize=14;strokeWidth=2;" edge="1" parent="1" source="bbqiQBsZa8V4FSiDIm1c-45" target="bbqiQBsZa8V4FSiDIm1c-23">
          <mxGeometry relative="1" as="geometry" />
        </mxCell>
        <mxCell id="bbqiQBsZa8V4FSiDIm1c-45" value="class FinishedOrder" style="swimlane;fontStyle=0;align=center;verticalAlign=middle;childLayout=stackLayout;horizontal=1;startSize=26;horizontalStack=0;resizeParent=1;resizeParentMax=0;resizeLast=0;collapsible=1;marginBottom=0;fontSize=19;" vertex="1" parent="1">
          <mxGeometry x="183.25" y="949" width="630" height="60" as="geometry" />
        </mxCell>
        <mxCell id="bbqiQBsZa8V4FSiDIm1c-46" value="" style="line;strokeWidth=1;fillColor=none;align=left;verticalAlign=middle;spacingTop=-1;spacingLeft=3;spacingRight=3;rotatable=0;labelPosition=right;points=[];portConstraint=eastwest;fontSize=19;" vertex="1" parent="bbqiQBsZa8V4FSiDIm1c-45">
          <mxGeometry y="26" width="630" height="8" as="geometry" />
        </mxCell>
        <mxCell id="bbqiQBsZa8V4FSiDIm1c-47" value="@Override + action(String decision, OrderContext orderContext);void" style="text;strokeColor=none;fillColor=none;align=left;verticalAlign=bottom;spacingLeft=4;spacingRight=4;overflow=hidden;rotatable=0;points=[[0,0.5],[1,0.5]];portConstraint=eastwest;fontSize=19;" vertex="1" parent="bbqiQBsZa8V4FSiDIm1c-45">
          <mxGeometry y="34" width="630" height="26" as="geometry" />
        </mxCell>
        <mxCell id="bbqiQBsZa8V4FSiDIm1c-52" style="edgeStyle=orthogonalEdgeStyle;rounded=0;orthogonalLoop=1;jettySize=auto;html=1;dashed=1;fontSize=19;endArrow=block;endFill=0;endSize=14;strokeWidth=2;exitX=0.5;exitY=0;exitDx=0;exitDy=0;" edge="1" parent="1" source="bbqiQBsZa8V4FSiDIm1c-49" target="bbqiQBsZa8V4FSiDIm1c-23">
          <mxGeometry relative="1" as="geometry" />
        </mxCell>
        <mxCell id="bbqiQBsZa8V4FSiDIm1c-49" value="class AcceptedFinishedOrder" style="swimlane;fontStyle=0;align=center;verticalAlign=middle;childLayout=stackLayout;horizontal=1;startSize=26;horizontalStack=0;resizeParent=1;resizeParentMax=0;resizeLast=0;collapsible=1;marginBottom=0;fontSize=19;" vertex="1" parent="1">
          <mxGeometry x="814.25" y="949" width="630" height="60" as="geometry" />
        </mxCell>
        <mxCell id="bbqiQBsZa8V4FSiDIm1c-50" value="" style="line;strokeWidth=1;fillColor=none;align=left;verticalAlign=middle;spacingTop=-1;spacingLeft=3;spacingRight=3;rotatable=0;labelPosition=right;points=[];portConstraint=eastwest;fontSize=19;" vertex="1" parent="bbqiQBsZa8V4FSiDIm1c-49">
          <mxGeometry y="26" width="630" height="8" as="geometry" />
        </mxCell>
        <mxCell id="bbqiQBsZa8V4FSiDIm1c-51" value="@Override + action(String decision, OrderContext orderContext);void" style="text;strokeColor=none;fillColor=none;align=left;verticalAlign=bottom;spacingLeft=4;spacingRight=4;overflow=hidden;rotatable=0;points=[[0,0.5],[1,0.5]];portConstraint=eastwest;fontSize=19;" vertex="1" parent="bbqiQBsZa8V4FSiDIm1c-49">
          <mxGeometry y="34" width="630" height="26" as="geometry" />
        </mxCell>
      </root>
    </mxGraphModel>
  </diagram>
</mxfile>
